<?xml version="1.0" encoding="UTF-8" standalone="no"?>
<svg width="18px" height="18px" viewBox="0 0 18 18" version="1.1" xmlns="http://www.w3.org/2000/svg" xmlns:xlink="http://www.w3.org/1999/xlink" xmlns:sketch="http://www.bohemiancoding.com/sketch/ns">
    <!-- Generator: Sketch 3.4.4 (17249) - http://www.bohemiancoding.com/sketch -->
    <title>ic_add_box_black_24px</title>
    <desc>Created with Sketch.</desc>
    <defs></defs>
    <g id="Page-1" stroke="none" stroke-width="1" fill="none" fill-rule="evenodd" sketch:type="MSPage">
        <g id="Artboard-1" sketch:type="MSArtboardGroup" transform="translate(-57.000000, -16.000000)">
            <g id="ic_add_box_black_24px" sketch:type="MSLayerGroup" transform="translate(54.000000, 13.000000)">
                <g id="Group" sketch:type="MSShapeGroup">
                    <path d="M19,3 L5,3 C3.89,3 3,3.9 3,5 L3,19 C3,20.1 3.89,21 5,21 L19,21 C20.1,21 21,20.1 21,19 L21,5 C21,3.9 20.1,3 19,3 L19,3 Z M17,13 L13,13 L13,17 L11,17 L11,13 L7,13 L7,11 L11,11 L11,7 L13,7 L13,11 L17,11 L17,13 L17,13 Z" id="Shape" fill="#FFFFFF"></path>
                    <path d="M0,0 L24,0 L24,24 L0,24 L0,0 Z" id="Shape"></path>
                </g>
            </g>
        </g>
    </g>
</svg>