<?xml version="1.0" encoding="UTF-8" standalone="no"?>
<svg width="20px" height="19px" viewBox="0 0 20 19" version="1.1" xmlns="http://www.w3.org/2000/svg" xmlns:xlink="http://www.w3.org/1999/xlink" xmlns:sketch="http://www.bohemiancoding.com/sketch/ns">
    <!-- Generator: Sketch 3.4.4 (17249) - http://www.bohemiancoding.com/sketch -->
    <title>ic_star_border_black_24px</title>
    <desc>Created with Sketch.</desc>
    <defs></defs>
    <g id="Page-1" stroke="none" stroke-width="1" fill="none" fill-rule="evenodd" sketch:type="MSPage">
        <g id="ic_star_border_black_24px" sketch:type="MSLayerGroup" transform="translate(-2.000000, -2.000000)">
            <g id="Group" sketch:type="MSShapeGroup">
                <path d="M22,9.24 L14.81,8.62 L12,2 L9.19,8.63 L2,9.24 L7.46,13.97 L5.82,21 L12,17.27 L18.18,21 L16.55,13.97 L22,9.24 L22,9.24 Z M12,15.4 L8.24,17.67 L9.24,13.39 L5.92,10.51 L10.3,10.13 L12,6.1 L13.71,10.14 L18.09,10.52 L14.77,13.4 L15.77,17.68 L12,15.4 L12,15.4 Z" id="Shape" fill="#9B9B9B"></path>
                <path d="M0,0 L24,0 L24,24 L0,24 L0,0 Z" id="Shape"></path>
            </g>
        </g>
    </g>
</svg>